<svg xmlns="http://www.w3.org/2000/svg" width="94.287" height="31.691" viewBox="0 0 94.287 31.691">
  <path id="fishbone" d="M74.272,31.691a15.059,15.059,0,0,1-1.439-1.147,12.822,12.822,0,0,1-1.21-1.252,11.455,11.455,0,0,1-.982-1.356,10.873,10.873,0,0,1-.755-1.459q-.321-.755-.578-1.569t-.452-1.685q-.194-.871-.327-1.8t-.2-1.913H62.611l.195,10.124a1.49,1.49,0,0,1-.2.778,1.838,1.838,0,0,1-.258.347,2.579,2.579,0,0,1-.365.319,3.063,3.063,0,0,1-.439.267,3.1,3.1,0,0,1-.479.191,3.4,3.4,0,0,1-.52.115,4.129,4.129,0,0,1-1.121,0,3.471,3.471,0,0,1-.523-.115,3.183,3.183,0,0,1-.932-.458,2.7,2.7,0,0,1-.375-.319,1.923,1.923,0,0,1-.269-.347,1.557,1.557,0,0,1-.163-.375,1.534,1.534,0,0,1-.058-.4l-.124-10.124H51.355l.053,10.124a1.505,1.505,0,0,1-.208.778,1.875,1.875,0,0,1-.263.347,2.633,2.633,0,0,1-.369.319,3.118,3.118,0,0,1-.924.458,3.433,3.433,0,0,1-.521.115,4.129,4.129,0,0,1-1.121,0,3.44,3.44,0,0,1-.522-.115,3.131,3.131,0,0,1-.926-.458,2.647,2.647,0,0,1-.37-.319,1.884,1.884,0,0,1-.264-.347,1.509,1.509,0,0,1-.21-.778l.018-10.124H40.1l-.053,6.044a1.509,1.509,0,0,1-.056.4,1.531,1.531,0,0,1-.161.371,1.9,1.9,0,0,1-.266.344,2.671,2.671,0,0,1-.372.316,3.16,3.16,0,0,1-.926.454,3.46,3.46,0,0,1-.52.114,4.129,4.129,0,0,1-1.116,0,3.407,3.407,0,0,1-.517-.114,3.106,3.106,0,0,1-.477-.189,3.065,3.065,0,0,1-.437-.265,2.575,2.575,0,0,1-.364-.316,1.83,1.83,0,0,1-.258-.344,1.473,1.473,0,0,1-.2-.77l.1-6.044H28.843l-.046,2a1.5,1.5,0,0,1-.061.395,1.536,1.536,0,0,1-.166.368,1.916,1.916,0,0,1-.27.34,2.709,2.709,0,0,1-.374.313,3.2,3.2,0,0,1-.927.449,3.488,3.488,0,0,1-.519.112,4.024,4.024,0,0,1-.556.037,3.982,3.982,0,0,1-.554-.037,3.376,3.376,0,0,1-.513-.112,3.056,3.056,0,0,1-.472-.187,3,3,0,0,1-.431-.262,2.507,2.507,0,0,1-.358-.313,1.776,1.776,0,0,1-.252-.34,1.452,1.452,0,0,1-.146-.368,1.467,1.467,0,0,1-.041-.395l.06-2H16.357a18.645,18.645,0,0,1-1.045,1.63q-.575.8-1.252,1.578T12.6,24.243q-.782.749-1.667,1.471a20.3,20.3,0,0,1-1.827,1.329,19.353,19.353,0,0,1-1.937,1.1,19.159,19.159,0,0,1-2.047.865,19.709,19.709,0,0,1-2.155.63.418.418,0,0,0-.115-.182,1.859,1.859,0,0,0-.274-.226q-.177-.124-.433-.27t-.591-.314q-.335-.168-.585-.317a3.79,3.79,0,0,1-.415-.281A1.249,1.249,0,0,1,.311,27.8a.338.338,0,0,1-.074-.209,16.286,16.286,0,0,1,.306-2.38,12.62,12.62,0,0,1,.626-2.106,10.564,10.564,0,0,1,.944-1.836,9.716,9.716,0,0,1,2.872-2.882,12.682,12.682,0,0,1,1.993-1.058,17.482,17.482,0,0,1,2.376-.807,24.749,24.749,0,0,1,2.76-.557l.038-.866a23.473,23.473,0,0,1-2.7-.556,15.982,15.982,0,0,1-2.289-.8A11.122,11.122,0,0,1,5.285,12.7a8.343,8.343,0,0,1-1.459-1.288A8.213,8.213,0,0,1,2.749,9.877,8.9,8.9,0,0,1,2.022,8.1a10.966,10.966,0,0,1-.379-2.018,14.651,14.651,0,0,1-.034-2.256.352.352,0,0,1,.095-.2A1.42,1.42,0,0,1,1.968,3.4,4.308,4.308,0,0,1,2.4,3.134q.258-.141.6-.3t.606-.294q.263-.137.447-.253a2.1,2.1,0,0,0,.288-.211.452.452,0,0,0,.13-.17A17.987,17.987,0,0,1,6.493,2.5a16.952,16.952,0,0,1,1.9.811,16.719,16.719,0,0,1,1.78,1.034A17.279,17.279,0,0,1,11.833,5.6q.8.687,1.5,1.4t1.306,1.466A18.036,18.036,0,0,1,15.751,10a16.425,16.425,0,0,1,.909,1.592h6.791l.058-1.956a1.435,1.435,0,0,1,.063-.383,1.485,1.485,0,0,1,.165-.356A1.872,1.872,0,0,1,24,8.569a2.67,2.67,0,0,1,.369-.3,3.181,3.181,0,0,1,.912-.433,3.482,3.482,0,0,1,.509-.108,4.024,4.024,0,0,1,.545-.036,3.982,3.982,0,0,1,.543.036,3.372,3.372,0,0,1,.5.108,3.044,3.044,0,0,1,.464.18,2.973,2.973,0,0,1,.425.252,2.471,2.471,0,0,1,.353.3,1.735,1.735,0,0,1,.25.329,1.384,1.384,0,0,1,.189.738l-.045,1.956H34.6l.092-5.838a1.406,1.406,0,0,1,.057-.379,1.445,1.445,0,0,1,.159-.352,1.818,1.818,0,0,1,.261-.326,2.6,2.6,0,0,1,.363-.3,3.114,3.114,0,0,1,.432-.25,3.158,3.158,0,0,1,.469-.178,3.45,3.45,0,0,1,.505-.107,4.129,4.129,0,0,1,1.083,0,3.4,3.4,0,0,1,.5.107,3.082,3.082,0,0,1,.464.178,3.017,3.017,0,0,1,.426.25,2.508,2.508,0,0,1,.356.3,1.754,1.754,0,0,1,.253.326,1.406,1.406,0,0,1,.151.352,1.392,1.392,0,0,1,.048.379l-.051,5.838h5.573l.017-9.683a1.378,1.378,0,0,1,.052-.375,1.405,1.405,0,0,1,.154-.349,1.765,1.765,0,0,1,.256-.322,2.532,2.532,0,0,1,.357-.3A3.047,3.047,0,0,1,47,.318a3.109,3.109,0,0,1,.464-.177,3.419,3.419,0,0,1,.5-.106,4.129,4.129,0,0,1,1.078,0,3.426,3.426,0,0,1,.5.106,3.119,3.119,0,0,1,.465.177,3.06,3.06,0,0,1,.428.248,2.545,2.545,0,0,1,.358.3,1.774,1.774,0,0,1,.257.322,1.41,1.41,0,0,1,.155.349,1.379,1.379,0,0,1,.053.375l.051,9.683h5.573l-.119-9.683a1.357,1.357,0,0,1,.2-.724,1.73,1.73,0,0,1,.251-.322,2.48,2.48,0,0,1,.353-.3A2.992,2.992,0,0,1,57.99.318a3.066,3.066,0,0,1,.462-.177,3.39,3.39,0,0,1,.5-.106,4.128,4.128,0,0,1,1.078,0,3.455,3.455,0,0,1,.5.106A3.163,3.163,0,0,1,61,.318a3.116,3.116,0,0,1,.431.248,2.6,2.6,0,0,1,.362.3,1.811,1.811,0,0,1,.261.322,1.432,1.432,0,0,1,.16.349,1.388,1.388,0,0,1,.058.375l.186,9.683h5.659q.018-.964.1-1.866t.227-1.74q.145-.838.354-1.615a15.615,15.615,0,0,1,.48-1.492A9.481,9.481,0,0,1,69.933,3.5a9.883,9.883,0,0,1,.875-1.272,11.06,11.06,0,0,1,1.1-1.167A13.1,13.1,0,0,1,73.218,0a22.333,22.333,0,0,1,3.651.749,24.87,24.87,0,0,1,3.318,1.237,26.225,26.225,0,0,1,2.9,1.547,24.376,24.376,0,0,1,2.395,1.679c.7.562,1.532,1.237,2.381,2a30.209,30.209,0,0,1,2.516,2.5,15.652,15.652,0,0,1,2.038,2.835,7.221,7.221,0,0,1,.935,2.986,7.124,7.124,0,0,1-.575,3.053,13.849,13.849,0,0,1-1.706,2.973,21.683,21.683,0,0,1-2.282,2.611A21.219,21.219,0,0,1,86.5,26.126c-.7.512-1.49,1.074-2.358,1.64a32.024,32.024,0,0,1-2.848,1.665,23.727,23.727,0,0,1-3.3,1.4A19.049,19.049,0,0,1,74.272,31.691Zm2.118-20.1a3.974,3.974,0,0,0-.546.036,3.353,3.353,0,0,0-.5.109,3.017,3.017,0,0,0-.464.182,2.942,2.942,0,0,0-.424.255,2.448,2.448,0,0,0-.352.3,1.724,1.724,0,0,0-.248.332,1.4,1.4,0,0,0-.143.359,1.421,1.421,0,0,0-.039.387,1.46,1.46,0,0,0,.065.387,1.516,1.516,0,0,0,.168.36,1.91,1.91,0,0,0,.271.334,2.717,2.717,0,0,0,.374.307,3.223,3.223,0,0,0,.923.44,3.505,3.505,0,0,0,.515.11,4.032,4.032,0,0,0,.551.037,3.973,3.973,0,0,0,.548-.037,3.35,3.35,0,0,0,.507-.11,3.013,3.013,0,0,0,.466-.184,2.935,2.935,0,0,0,.425-.257,2.439,2.439,0,0,0,.351-.307,1.718,1.718,0,0,0,.246-.334,1.4,1.4,0,0,0,.141-.36,1.42,1.42,0,0,0,.036-.387,1.464,1.464,0,0,0-.067-.387,1.522,1.522,0,0,0-.17-.359,1.92,1.92,0,0,0-.272-.332,2.729,2.729,0,0,0-.374-.3,3.229,3.229,0,0,0-.921-.437,3.507,3.507,0,0,0-.513-.109A4.033,4.033,0,0,0,76.39,11.592Z" fill="#fff"/>
</svg>
