<svg xmlns="http://www.w3.org/2000/svg" width="85" height="100" viewBox="0 0 85 100">
  <g id="Group_20" data-name="Group 20" transform="translate(-1405 -7510.755)">
    <rect id="Rectangle_271" data-name="Rectangle 271" width="5" height="5" transform="translate(1405 7510.755)"/>
    <rect id="Rectangle_272" data-name="Rectangle 272" width="5" height="5" transform="translate(1410 7510.755)"/>
    <rect id="Rectangle_273" data-name="Rectangle 273" width="5" height="5" transform="translate(1405 7515.755)"/>
    <rect id="Rectangle_274" data-name="Rectangle 274" width="5" height="5" transform="translate(1410 7515.755)"/>
    <rect id="Rectangle_275" data-name="Rectangle 275" width="5" height="5" transform="translate(1405 7520.755)"/>
    <rect id="Rectangle_276" data-name="Rectangle 276" width="5" height="5" transform="translate(1415 7515.755)"/>
    <rect id="Rectangle_277" data-name="Rectangle 277" width="5" height="5" transform="translate(1410 7520.755)"/>
    <rect id="Rectangle_278" data-name="Rectangle 278" width="5" height="5" transform="translate(1415 7520.755)"/>
    <rect id="Rectangle_279" data-name="Rectangle 279" width="5" height="5" transform="translate(1420 7520.755)"/>
    <rect id="Rectangle_280" data-name="Rectangle 280" width="5" height="5" transform="translate(1425 7520.755)"/>
    <rect id="Rectangle_281" data-name="Rectangle 281" width="5" height="5" transform="translate(1430 7520.755)"/>
    <rect id="Rectangle_282" data-name="Rectangle 282" width="5" height="5" transform="translate(1435 7520.755)"/>
    <rect id="Rectangle_283" data-name="Rectangle 283" width="5" height="5" transform="translate(1440 7520.755)"/>
    <rect id="Rectangle_284" data-name="Rectangle 284" width="5" height="5" transform="translate(1445 7510.755)"/>
    <rect id="Rectangle_285" data-name="Rectangle 285" width="5" height="5" transform="translate(1450 7510.755)"/>
    <rect id="Rectangle_286" data-name="Rectangle 286" width="5" height="5" transform="translate(1440 7515.755)"/>
    <rect id="Rectangle_287" data-name="Rectangle 287" width="5" height="5" transform="translate(1445 7515.755)"/>
    <rect id="Rectangle_288" data-name="Rectangle 288" width="5" height="5" transform="translate(1450 7515.755)"/>
    <rect id="Rectangle_289" data-name="Rectangle 289" width="5" height="5" transform="translate(1445 7520.755)"/>
    <rect id="Rectangle_290" data-name="Rectangle 290" width="5" height="5" transform="translate(1450 7520.755)"/>
    <rect id="Rectangle_291" data-name="Rectangle 291" width="5" height="5" transform="translate(1405 7525.755)"/>
    <rect id="Rectangle_292" data-name="Rectangle 292" width="5" height="5" transform="translate(1410 7525.755)"/>
    <rect id="Rectangle_293" data-name="Rectangle 293" width="5" height="5" transform="translate(1415 7525.755)"/>
    <rect id="Rectangle_294" data-name="Rectangle 294" width="5" height="5" transform="translate(1420 7525.755)"/>
    <rect id="Rectangle_295" data-name="Rectangle 295" width="5" height="5" transform="translate(1425 7525.755)"/>
    <rect id="Rectangle_296" data-name="Rectangle 296" width="5" height="5" transform="translate(1430 7525.755)"/>
    <rect id="Rectangle_297" data-name="Rectangle 297" width="5" height="5" transform="translate(1435 7525.755)"/>
    <rect id="Rectangle_298" data-name="Rectangle 298" width="5" height="5" transform="translate(1440 7525.755)"/>
    <rect id="Rectangle_299" data-name="Rectangle 299" width="5" height="5" transform="translate(1445 7525.755)"/>
    <rect id="Rectangle_300" data-name="Rectangle 300" width="5" height="5" transform="translate(1450 7525.755)"/>
    <rect id="Rectangle_301" data-name="Rectangle 301" width="5" height="5" transform="translate(1405 7530.755)"/>
    <rect id="Rectangle_302" data-name="Rectangle 302" width="5" height="5" transform="translate(1410 7530.755)"/>
    <rect id="Rectangle_303" data-name="Rectangle 303" width="5" height="5" transform="translate(1415 7530.755)"/>
    <rect id="Rectangle_304" data-name="Rectangle 304" width="5" height="5" transform="translate(1420 7530.755)" fill="#ffd752"/>
    <rect id="Rectangle_305" data-name="Rectangle 305" width="5" height="5" transform="translate(1425 7530.755)"/>
    <rect id="Rectangle_306" data-name="Rectangle 306" width="5" height="5" transform="translate(1430 7530.755)"/>
    <rect id="Rectangle_307" data-name="Rectangle 307" width="5" height="5" transform="translate(1435 7530.755)" fill="#ffd752"/>
    <rect id="Rectangle_308" data-name="Rectangle 308" width="5" height="5" transform="translate(1440 7530.755)"/>
    <rect id="Rectangle_309" data-name="Rectangle 309" width="5" height="5" transform="translate(1445 7530.755)"/>
    <rect id="Rectangle_310" data-name="Rectangle 310" width="5" height="5" transform="translate(1450 7530.755)"/>
    <rect id="Rectangle_311" data-name="Rectangle 311" width="5" height="5" transform="translate(1405 7535.755)"/>
    <rect id="Rectangle_312" data-name="Rectangle 312" width="5" height="5" transform="translate(1410 7535.755)"/>
    <rect id="Rectangle_313" data-name="Rectangle 313" width="5" height="5" transform="translate(1415 7535.755)"/>
    <rect id="Rectangle_314" data-name="Rectangle 314" width="5" height="5" transform="translate(1420 7535.755)" fill="#ffd752"/>
    <rect id="Rectangle_315" data-name="Rectangle 315" width="5" height="5" transform="translate(1425 7535.755)"/>
    <rect id="Rectangle_316" data-name="Rectangle 316" width="5" height="5" transform="translate(1430 7535.755)"/>
    <rect id="Rectangle_317" data-name="Rectangle 317" width="5" height="5" transform="translate(1435 7535.755)" fill="#ffd752"/>
    <rect id="Rectangle_318" data-name="Rectangle 318" width="5" height="5" transform="translate(1440 7535.755)"/>
    <rect id="Rectangle_319" data-name="Rectangle 319" width="5" height="5" transform="translate(1445 7535.755)"/>
    <rect id="Rectangle_320" data-name="Rectangle 320" width="5" height="5" transform="translate(1450 7535.755)"/>
    <rect id="Rectangle_321" data-name="Rectangle 321" width="5" height="5" transform="translate(1405 7540.755)"/>
    <rect id="Rectangle_322" data-name="Rectangle 322" width="5" height="5" transform="translate(1410 7540.755)"/>
    <rect id="Rectangle_323" data-name="Rectangle 323" width="5" height="5" transform="translate(1415 7540.755)"/>
    <rect id="Rectangle_324" data-name="Rectangle 324" width="5" height="5" transform="translate(1420 7540.755)"/>
    <rect id="Rectangle_325" data-name="Rectangle 325" width="5" height="5" transform="translate(1425 7540.755)"/>
    <rect id="Rectangle_326" data-name="Rectangle 326" width="5" height="5" transform="translate(1430 7540.755)"/>
    <rect id="Rectangle_327" data-name="Rectangle 327" width="5" height="5" transform="translate(1435 7540.755)"/>
    <rect id="Rectangle_328" data-name="Rectangle 328" width="5" height="5" transform="translate(1440 7540.755)"/>
    <rect id="Rectangle_329" data-name="Rectangle 329" width="5" height="5" transform="translate(1445 7540.755)"/>
    <rect id="Rectangle_330" data-name="Rectangle 330" width="5" height="5" transform="translate(1450 7540.755)"/>
    <rect id="Rectangle_331" data-name="Rectangle 331" width="5" height="5" transform="translate(1405 7545.755)"/>
    <rect id="Rectangle_332" data-name="Rectangle 332" width="5" height="5" transform="translate(1410 7545.755)"/>
    <rect id="Rectangle_333" data-name="Rectangle 333" width="5" height="5" transform="translate(1415 7545.755)"/>
    <rect id="Rectangle_334" data-name="Rectangle 334" width="5" height="5" transform="translate(1420 7545.755)"/>
    <rect id="Rectangle_335" data-name="Rectangle 335" width="5" height="5" transform="translate(1425 7545.755)"/>
    <rect id="Rectangle_336" data-name="Rectangle 336" width="5" height="5" transform="translate(1430 7545.755)"/>
    <rect id="Rectangle_337" data-name="Rectangle 337" width="5" height="5" transform="translate(1435 7545.755)"/>
    <rect id="Rectangle_338" data-name="Rectangle 338" width="5" height="5" transform="translate(1440 7545.755)"/>
    <rect id="Rectangle_339" data-name="Rectangle 339" width="5" height="5" transform="translate(1445 7545.755)"/>
    <rect id="Rectangle_340" data-name="Rectangle 340" width="5" height="5" transform="translate(1450 7545.755)"/>
    <rect id="Rectangle_341" data-name="Rectangle 341" width="5" height="5" transform="translate(1410 7550.755)"/>
    <rect id="Rectangle_342" data-name="Rectangle 342" width="5" height="5" transform="translate(1415 7550.755)"/>
    <rect id="Rectangle_343" data-name="Rectangle 343" width="5" height="5" transform="translate(1420 7550.755)"/>
    <rect id="Rectangle_344" data-name="Rectangle 344" width="5" height="5" transform="translate(1425 7550.755)"/>
    <rect id="Rectangle_345" data-name="Rectangle 345" width="5" height="5" transform="translate(1430 7550.755)"/>
    <rect id="Rectangle_346" data-name="Rectangle 346" width="5" height="5" transform="translate(1435 7550.755)"/>
    <rect id="Rectangle_347" data-name="Rectangle 347" width="5" height="5" transform="translate(1440 7550.755)"/>
    <rect id="Rectangle_348" data-name="Rectangle 348" width="5" height="5" transform="translate(1445 7550.755)"/>
    <rect id="Rectangle_349" data-name="Rectangle 349" width="5" height="5" transform="translate(1415 7555.755)"/>
    <rect id="Rectangle_350" data-name="Rectangle 350" width="5" height="5" transform="translate(1420 7555.755)"/>
    <rect id="Rectangle_351" data-name="Rectangle 351" width="5" height="5" transform="translate(1425 7555.755)"/>
    <rect id="Rectangle_352" data-name="Rectangle 352" width="5" height="5" transform="translate(1430 7555.755)"/>
    <rect id="Rectangle_353" data-name="Rectangle 353" width="5" height="5" transform="translate(1435 7555.755)"/>
    <rect id="Rectangle_354" data-name="Rectangle 354" width="5" height="5" transform="translate(1440 7555.755)"/>
    <rect id="Rectangle_355" data-name="Rectangle 355" width="5" height="5" transform="translate(1410 7560.755)"/>
    <rect id="Rectangle_356" data-name="Rectangle 356" width="5" height="5" transform="translate(1415 7560.755)"/>
    <rect id="Rectangle_357" data-name="Rectangle 357" width="5" height="5" transform="translate(1420 7560.755)"/>
    <rect id="Rectangle_358" data-name="Rectangle 358" width="5" height="5" transform="translate(1425 7560.755)"/>
    <rect id="Rectangle_359" data-name="Rectangle 359" width="5" height="5" transform="translate(1430 7560.755)"/>
    <rect id="Rectangle_360" data-name="Rectangle 360" width="5" height="5" transform="translate(1435 7560.755)"/>
    <rect id="Rectangle_361" data-name="Rectangle 361" width="5" height="5" transform="translate(1440 7560.755)"/>
    <rect id="Rectangle_362" data-name="Rectangle 362" width="5" height="5" transform="translate(1445 7560.755)"/>
    <rect id="Rectangle_363" data-name="Rectangle 363" width="5" height="5" transform="translate(1410 7565.755)"/>
    <rect id="Rectangle_364" data-name="Rectangle 364" width="5" height="5" transform="translate(1415 7565.755)"/>
    <rect id="Rectangle_365" data-name="Rectangle 365" width="5" height="5" transform="translate(1420 7565.755)"/>
    <rect id="Rectangle_366" data-name="Rectangle 366" width="5" height="5" transform="translate(1425 7565.755)"/>
    <rect id="Rectangle_367" data-name="Rectangle 367" width="5" height="5" transform="translate(1430 7565.755)"/>
    <rect id="Rectangle_368" data-name="Rectangle 368" width="5" height="5" transform="translate(1435 7565.755)"/>
    <rect id="Rectangle_369" data-name="Rectangle 369" width="5" height="5" transform="translate(1440 7565.755)"/>
    <rect id="Rectangle_370" data-name="Rectangle 370" width="5" height="5" transform="translate(1445 7565.755)"/>
    <rect id="Rectangle_371" data-name="Rectangle 371" width="5" height="5" transform="translate(1405 7570.755)"/>
    <rect id="Rectangle_372" data-name="Rectangle 372" width="5" height="5" transform="translate(1410 7570.755)"/>
    <rect id="Rectangle_373" data-name="Rectangle 373" width="5" height="5" transform="translate(1415 7570.755)"/>
    <rect id="Rectangle_374" data-name="Rectangle 374" width="5" height="5" transform="translate(1420 7570.755)"/>
    <rect id="Rectangle_375" data-name="Rectangle 375" width="5" height="5" transform="translate(1425 7570.755)"/>
    <rect id="Rectangle_376" data-name="Rectangle 376" width="5" height="5" transform="translate(1430 7570.755)"/>
    <rect id="Rectangle_377" data-name="Rectangle 377" width="5" height="5" transform="translate(1435 7570.755)"/>
    <rect id="Rectangle_378" data-name="Rectangle 378" width="5" height="5" transform="translate(1440 7570.755)"/>
    <rect id="Rectangle_379" data-name="Rectangle 379" width="5" height="5" transform="translate(1445 7570.755)"/>
    <rect id="Rectangle_380" data-name="Rectangle 380" width="5" height="5" transform="translate(1450 7570.755)"/>
    <rect id="Rectangle_381" data-name="Rectangle 381" width="5" height="5" transform="translate(1405 7575.755)"/>
    <rect id="Rectangle_382" data-name="Rectangle 382" width="5" height="5" transform="translate(1410 7575.755)"/>
    <rect id="Rectangle_383" data-name="Rectangle 383" width="5" height="5" transform="translate(1415 7575.755)"/>
    <rect id="Rectangle_384" data-name="Rectangle 384" width="5" height="5" transform="translate(1420 7575.755)"/>
    <rect id="Rectangle_385" data-name="Rectangle 385" width="5" height="5" transform="translate(1425 7575.755)"/>
    <rect id="Rectangle_386" data-name="Rectangle 386" width="5" height="5" transform="translate(1430 7575.755)"/>
    <rect id="Rectangle_387" data-name="Rectangle 387" width="5" height="5" transform="translate(1435 7575.755)"/>
    <rect id="Rectangle_388" data-name="Rectangle 388" width="5" height="5" transform="translate(1440 7575.755)"/>
    <rect id="Rectangle_389" data-name="Rectangle 389" width="5" height="5" transform="translate(1445 7575.755)"/>
    <rect id="Rectangle_390" data-name="Rectangle 390" width="5" height="5" transform="translate(1450 7575.755)"/>
    <rect id="Rectangle_391" data-name="Rectangle 391" width="5" height="5" transform="translate(1405 7580.755)"/>
    <rect id="Rectangle_392" data-name="Rectangle 392" width="5" height="5" transform="translate(1410 7580.755)"/>
    <rect id="Rectangle_393" data-name="Rectangle 393" width="5" height="5" transform="translate(1415 7580.755)"/>
    <rect id="Rectangle_394" data-name="Rectangle 394" width="5" height="5" transform="translate(1420 7580.755)"/>
    <rect id="Rectangle_395" data-name="Rectangle 395" width="5" height="5" transform="translate(1425 7580.755)"/>
    <rect id="Rectangle_396" data-name="Rectangle 396" width="5" height="5" transform="translate(1430 7580.755)"/>
    <rect id="Rectangle_397" data-name="Rectangle 397" width="5" height="5" transform="translate(1435 7580.755)"/>
    <rect id="Rectangle_398" data-name="Rectangle 398" width="5" height="5" transform="translate(1440 7580.755)"/>
    <rect id="Rectangle_399" data-name="Rectangle 399" width="5" height="5" transform="translate(1445 7580.755)"/>
    <rect id="Rectangle_400" data-name="Rectangle 400" width="5" height="5" transform="translate(1450 7580.755)"/>
    <rect id="Rectangle_401" data-name="Rectangle 401" width="5" height="5" transform="translate(1405 7585.755)"/>
    <rect id="Rectangle_402" data-name="Rectangle 402" width="5" height="5" transform="translate(1410 7585.755)"/>
    <rect id="Rectangle_403" data-name="Rectangle 403" width="5" height="5" transform="translate(1415 7585.755)"/>
    <rect id="Rectangle_404" data-name="Rectangle 404" width="5" height="5" transform="translate(1420 7585.755)"/>
    <rect id="Rectangle_405" data-name="Rectangle 405" width="5" height="5" transform="translate(1425 7585.755)"/>
    <rect id="Rectangle_406" data-name="Rectangle 406" width="5" height="5" transform="translate(1430 7585.755)"/>
    <rect id="Rectangle_407" data-name="Rectangle 407" width="5" height="5" transform="translate(1435 7585.755)"/>
    <rect id="Rectangle_408" data-name="Rectangle 408" width="5" height="5" transform="translate(1440 7585.755)"/>
    <rect id="Rectangle_409" data-name="Rectangle 409" width="5" height="5" transform="translate(1445 7585.755)"/>
    <rect id="Rectangle_410" data-name="Rectangle 410" width="5" height="5" transform="translate(1450 7585.755)"/>
    <rect id="Rectangle_411" data-name="Rectangle 411" width="5" height="5" transform="translate(1405 7590.755)"/>
    <rect id="Rectangle_412" data-name="Rectangle 412" width="5" height="5" transform="translate(1410 7590.755)"/>
    <rect id="Rectangle_413" data-name="Rectangle 413" width="5" height="5" transform="translate(1415 7590.755)"/>
    <rect id="Rectangle_414" data-name="Rectangle 414" width="5" height="5" transform="translate(1420 7590.755)"/>
    <rect id="Rectangle_415" data-name="Rectangle 415" width="5" height="5" transform="translate(1425 7590.755)"/>
    <rect id="Rectangle_416" data-name="Rectangle 416" width="5" height="5" transform="translate(1430 7590.755)"/>
    <rect id="Rectangle_417" data-name="Rectangle 417" width="5" height="5" transform="translate(1435 7590.755)"/>
    <rect id="Rectangle_418" data-name="Rectangle 418" width="5" height="5" transform="translate(1440 7590.755)"/>
    <rect id="Rectangle_419" data-name="Rectangle 419" width="5" height="5" transform="translate(1445 7590.755)"/>
    <rect id="Rectangle_420" data-name="Rectangle 420" width="5" height="5" transform="translate(1450 7590.755)"/>
    <rect id="Rectangle_421" data-name="Rectangle 421" width="5" height="5" transform="translate(1405 7595.755)"/>
    <rect id="Rectangle_422" data-name="Rectangle 422" width="5" height="5" transform="translate(1410 7595.755)"/>
    <rect id="Rectangle_423" data-name="Rectangle 423" width="5" height="5" transform="translate(1415 7595.755)"/>
    <rect id="Rectangle_424" data-name="Rectangle 424" width="5" height="5" transform="translate(1420 7595.755)"/>
    <rect id="Rectangle_425" data-name="Rectangle 425" width="5" height="5" transform="translate(1425 7595.755)"/>
    <rect id="Rectangle_426" data-name="Rectangle 426" width="5" height="5" transform="translate(1430 7595.755)"/>
    <rect id="Rectangle_427" data-name="Rectangle 427" width="5" height="5" transform="translate(1435 7595.755)"/>
    <rect id="Rectangle_428" data-name="Rectangle 428" width="5" height="5" transform="translate(1440 7595.755)"/>
    <rect id="Rectangle_429" data-name="Rectangle 429" width="5" height="5" transform="translate(1445 7595.755)"/>
    <rect id="Rectangle_430" data-name="Rectangle 430" width="5" height="5" transform="translate(1450 7595.755)"/>
    <rect id="Rectangle_431" data-name="Rectangle 431" width="5" height="5" transform="translate(1410 7600.755)"/>
    <rect id="Rectangle_432" data-name="Rectangle 432" width="5" height="5" transform="translate(1415 7600.755)"/>
    <rect id="Rectangle_433" data-name="Rectangle 433" width="5" height="5" transform="translate(1420 7600.755)"/>
    <rect id="Rectangle_434" data-name="Rectangle 434" width="5" height="5" transform="translate(1425 7600.755)"/>
    <rect id="Rectangle_435" data-name="Rectangle 435" width="5" height="5" transform="translate(1430 7600.755)"/>
    <rect id="Rectangle_436" data-name="Rectangle 436" width="5" height="5" transform="translate(1435 7600.755)"/>
    <rect id="Rectangle_437" data-name="Rectangle 437" width="5" height="5" transform="translate(1440 7600.755)"/>
    <rect id="Rectangle_438" data-name="Rectangle 438" width="5" height="5" transform="translate(1445 7600.755)"/>
    <rect id="Rectangle_439" data-name="Rectangle 439" width="5" height="5" transform="translate(1450 7600.755)"/>
    <rect id="Rectangle_440" data-name="Rectangle 440" width="5" height="5" transform="translate(1415 7605.755)"/>
    <rect id="Rectangle_441" data-name="Rectangle 441" width="5" height="5" transform="translate(1420 7605.755)"/>
    <rect id="Rectangle_442" data-name="Rectangle 442" width="5" height="5" transform="translate(1425 7605.755)"/>
    <rect id="Rectangle_443" data-name="Rectangle 443" width="5" height="5" transform="translate(1430 7605.755)"/>
    <rect id="Rectangle_444" data-name="Rectangle 444" width="5" height="5" transform="translate(1435 7605.755)"/>
    <rect id="Rectangle_445" data-name="Rectangle 445" width="5" height="5" transform="translate(1440 7605.755)"/>
    <rect id="Rectangle_446" data-name="Rectangle 446" width="5" height="5" transform="translate(1445 7605.755)"/>
    <rect id="Rectangle_447" data-name="Rectangle 447" width="5" height="5" transform="translate(1450 7605.755)"/>
    <rect id="Rectangle_448" data-name="Rectangle 448" width="5" height="5" transform="translate(1455 7600.755)"/>
    <rect id="Rectangle_449" data-name="Rectangle 449" width="5" height="5" transform="translate(1460 7600.755)"/>
    <rect id="Rectangle_450" data-name="Rectangle 450" width="5" height="5" transform="translate(1465 7600.755)"/>
    <rect id="Rectangle_451" data-name="Rectangle 451" width="5" height="5" transform="translate(1455 7605.755)"/>
    <rect id="Rectangle_452" data-name="Rectangle 452" width="5" height="5" transform="translate(1460 7605.755)"/>
    <rect id="Rectangle_453" data-name="Rectangle 453" width="5" height="5" transform="translate(1465 7605.755)"/>
    <rect id="Rectangle_454" data-name="Rectangle 454" width="5" height="5" transform="translate(1470 7600.755)"/>
    <rect id="Rectangle_455" data-name="Rectangle 455" width="5" height="5" transform="translate(1470 7595.755)"/>
    <rect id="Rectangle_456" data-name="Rectangle 456" width="5" height="5" transform="translate(1465 7595.755)"/>
    <rect id="Rectangle_457" data-name="Rectangle 457" width="5" height="5" transform="translate(1470 7590.755)"/>
    <rect id="Rectangle_458" data-name="Rectangle 458" width="5" height="5" transform="translate(1465 7590.755)"/>
    <rect id="Rectangle_459" data-name="Rectangle 459" width="5" height="5" transform="translate(1475 7590.755)"/>
    <rect id="Rectangle_460" data-name="Rectangle 460" width="5" height="5" transform="translate(1470 7585.755)"/>
    <rect id="Rectangle_461" data-name="Rectangle 461" width="5" height="5" transform="translate(1475 7585.755)"/>
    <rect id="Rectangle_462" data-name="Rectangle 462" width="5" height="5" transform="translate(1475 7580.755)"/>
    <rect id="Rectangle_463" data-name="Rectangle 463" width="5" height="5" transform="translate(1470 7580.755)"/>
    <rect id="Rectangle_464" data-name="Rectangle 464" width="5" height="5" transform="translate(1475 7575.755)"/>
    <rect id="Rectangle_465" data-name="Rectangle 465" width="5" height="5" transform="translate(1470 7575.755)"/>
    <rect id="Rectangle_467" data-name="Rectangle 467" width="5" height="5" transform="translate(1465 7575.755)"/>
    <rect id="Rectangle_468" data-name="Rectangle 468" width="5" height="5" transform="translate(1465 7570.755)"/>
    <rect id="Rectangle_469" data-name="Rectangle 469" width="5" height="5" transform="translate(1465 7565.755)"/>
    <rect id="Rectangle_470" data-name="Rectangle 470" width="5" height="5" transform="translate(1470 7565.755)"/>
    <rect id="Rectangle_471" data-name="Rectangle 471" width="5" height="5" transform="translate(1470 7560.755)"/>
    <rect id="Rectangle_472" data-name="Rectangle 472" width="5" height="5" transform="translate(1465 7560.755)"/>
    <rect id="Rectangle_473" data-name="Rectangle 473" width="5" height="5" transform="translate(1470 7555.755)"/>
    <rect id="Rectangle_474" data-name="Rectangle 474" width="5" height="5" transform="translate(1465 7555.755)"/>
    <rect id="Rectangle_475" data-name="Rectangle 475" width="5" height="5" transform="translate(1470 7570.755)"/>
    <rect id="Rectangle_476" data-name="Rectangle 476" width="5" height="5" transform="translate(1470 7550.755)"/>
    <rect id="Rectangle_477" data-name="Rectangle 477" width="5" height="5" transform="translate(1475 7550.755)"/>
    <rect id="Rectangle_478" data-name="Rectangle 478" width="5" height="5" transform="translate(1480 7550.755)"/>
    <rect id="Rectangle_479" data-name="Rectangle 479" width="5" height="5" transform="translate(1485 7550.755)"/>
    <rect id="Rectangle_480" data-name="Rectangle 480" width="5" height="5" transform="translate(1475 7555.755)"/>
    <rect id="Rectangle_481" data-name="Rectangle 481" width="5" height="5" transform="translate(1480 7555.755)"/>
    <rect id="Rectangle_482" data-name="Rectangle 482" width="5" height="5" transform="translate(1485 7555.755)"/>
  </g>
</svg>
