<svg xmlns="http://www.w3.org/2000/svg" width="91.247" height="93.663" viewBox="0 0 91.247 93.663">
  <g id="Group_36" data-name="Group 36" transform="translate(-1079.936 -356.833)">
    <path id="Path_73" data-name="Path 73" d="M4922.118,4514.285c-12.58-9.24-20.09-15.23-26.245-24.72s-18.606-34.915-7.272-46.553,35.261-13.6,51.53,0-8.708,35.215-29.135,46.553-43.97,10.382-43.97,10.382v-14.113s22.433.064,39.241-5.857,31.716-22.536,23.736-30.644-26.389-5.274-33.046,3,4.542,25.416,10.31,32.5,10.91,12.208,22.736,19.322a99.3,99.3,0,0,0,23.568,10.13l-7.38,12.239A79.027,79.027,0,0,1,4922.118,4514.285Z" transform="translate(-3784.059 -4076.699)" fill="#ff5d36"/>
    <line id="Line_28" data-name="Line 28" x2="2" y2="1" transform="translate(1162.5 448.825)" fill="none" stroke="#ff5d36" stroke-linecap="round" stroke-width="1"/>
    <line id="Line_29" data-name="Line 29" x2="2" y2="1" transform="translate(1164 446.5)" fill="none" stroke="#ff5d36" stroke-linecap="round" stroke-width="1"/>
    <line id="Line_30" data-name="Line 30" x2="2" y2="1" transform="translate(1165.5 444.325)" fill="none" stroke="#ff5d36" stroke-linecap="round" stroke-width="1"/>
    <line id="Line_31" data-name="Line 31" x2="2" y2="1" transform="translate(1166.5 442.325)" fill="none" stroke="#ff5d36" stroke-linecap="round" stroke-width="1"/>
    <line id="Line_32" data-name="Line 32" x2="2" y2="1" transform="translate(1167.5 440.325)" fill="none" stroke="#ff5d36" stroke-linecap="round" stroke-width="1"/>
    <line id="Line_33" data-name="Line 33" x2="2" y2="1" transform="translate(1168.513 438.325)" fill="none" stroke="#ff5d36" stroke-linecap="round" stroke-width="1"/>
    <line id="Line_34" data-name="Line 34" x2="2.468" y2="0.325" transform="translate(1080.5 422.325)" fill="none" stroke="#ff5d36" stroke-linecap="round" stroke-width="1"/>
    <line id="Line_35" data-name="Line 35" y1="0.175" x2="2.468" transform="translate(1080.5 420)" fill="none" stroke="#ff5d36" stroke-linecap="round" stroke-width="1"/>
    <line id="Line_36" data-name="Line 36" x2="2.351" y2="0.325" transform="translate(1080.5 417.5)" fill="none" stroke="#ff5d36" stroke-linecap="round" stroke-width="1"/>
    <line id="Line_37" data-name="Line 37" y1="0.175" x2="2.468" transform="translate(1080.5 415.5)" fill="none" stroke="#ff5d36" stroke-linecap="round" stroke-width="1"/>
    <line id="Line_38" data-name="Line 38" y1="0.175" x2="2.468" transform="translate(1080.5 413)" fill="none" stroke="#ff5d36" stroke-linecap="round" stroke-width="1"/>
    <line id="Line_39" data-name="Line 39" y1="0.175" x2="2.468" transform="translate(1080.5 410.325)" fill="none" stroke="#ff5d36" stroke-linecap="round" stroke-width="1"/>
  </g>
</svg>
