<svg xmlns="http://www.w3.org/2000/svg" width="408" height="283.764" viewBox="0 0 408 283.764">
  <g id="Path_79" data-name="Path 79" transform="translate(0 26.764)" fill="none">
    <path d="M15.73,0H189l15-26.764L219,0H392.27A15.867,15.867,0,0,1,408,16V241a15.867,15.867,0,0,1-15.73,16H15.73A15.867,15.867,0,0,1,0,241V16A15.867,15.867,0,0,1,15.73,0Z" stroke="none"/>
    <path d="M 204 -20.6275634765625 L 190.7576904296875 3 L 15.7301025390625 3 C 12.33941650390625 3 9.14898681640625 4.345794677734375 6.74652099609375 6.789474487304688 C 4.330535888671875 9.246902465820312 3 12.51795959472656 3 16 L 3 241 C 3 244.4820556640625 4.330535888671875 247.7530517578125 6.74652099609375 250.2104797363281 C 9.14898681640625 252.6542205810547 12.33941650390625 254 15.7301025390625 254 L 392.2698974609375 254 C 395.6605834960938 254 398.8510131835938 252.6542205810547 401.2534790039062 250.2104797363281 C 403.6694641113281 247.7530517578125 405 244.4820556640625 405 241 L 405 16 C 405 12.51795959472656 403.6694641113281 9.2469482421875 401.2534790039062 6.789474487304688 C 398.8510131835938 4.345794677734375 395.6605834960938 3 392.2698974609375 3 L 217.2423095703125 3 L 204 -20.6275634765625 M 204 -26.763671875 L 219 0 L 392.2698974609375 0 C 400.9573669433594 0 408 7.163421630859375 408 16 L 408 241 C 408 249.8365325927734 400.9573669433594 257 392.2698974609375 257 L 15.7301025390625 257 C 7.042572021484375 257 0 249.8365325927734 0 241 L 0 16 C 0 7.163421630859375 7.042572021484375 0 15.7301025390625 0 L 189 0 L 204 -26.763671875 Z" stroke="none" fill="#fff"/>
  </g>
</svg>
