<svg xmlns="http://www.w3.org/2000/svg" width="102.528" height="105.979" viewBox="0 0 102.528 105.979">
  <g id="Group_30" data-name="Group 30" transform="translate(-43.674 71.233) rotate(-50)">
    <rect id="Rectangle_492" data-name="Rectangle 492" width="88" height="60" rx="5" transform="translate(31 31)" fill="#573737"/>
    <path id="Path_64" data-name="Path 64" d="M21,2.5v15A3.5,3.5,0,0,1,17.5,21H2.5" transform="translate(36.5 36.5)" fill="none" stroke="#8b6565" stroke-linecap="round" stroke-width="3"/>
    <path id="Path_65" data-name="Path 65" d="M21,2.5v15A3.5,3.5,0,0,1,17.5,21H2.5" transform="translate(64.5 36.5)" fill="none" stroke="#8b6565" stroke-linecap="round" stroke-width="3"/>
    <path id="Path_66" data-name="Path 66" d="M21,2.5v15A3.5,3.5,0,0,1,17.5,21H2.5" transform="translate(92.5 36.5)" fill="none" stroke="#8b6565" stroke-linecap="round" stroke-width="3"/>
    <path id="Path_67" data-name="Path 67" d="M21,2.5v15A3.5,3.5,0,0,1,17.5,21H2.5" transform="translate(36.5 64.5)" fill="none" stroke="#8b6565" stroke-linecap="round" stroke-width="3"/>
    <path id="Path_68" data-name="Path 68" d="M21,2.5v15A3.5,3.5,0,0,1,17.5,21H2.5" transform="translate(64.5 64.5)" fill="none" stroke="#8b6565" stroke-linecap="round" stroke-width="3"/>
    <path id="Path_69" data-name="Path 69" d="M21,2.5v15A3.5,3.5,0,0,1,17.5,21H2.5" transform="translate(92.5 64.5)" fill="none" stroke="#8b6565" stroke-linecap="round" stroke-width="3"/>
  </g>
</svg>
