<svg xmlns="http://www.w3.org/2000/svg" width="73.491" height="73.268" viewBox="0 0 73.491 73.268">
  <path id="beaker-16" d="M23.248,27.275V9.1h-1.31c-2.131-.052-3.831-1.3-3.831-3.427s1.7-3.371,3.831-3.423H55.955c2.131.052,3.831,1.292,3.831,3.423s-1.7,3.375-3.831,3.427H54.648V27.277L73.832,57.422a11.774,11.774,0,0,1-9.936,18.1H14a11.776,11.776,0,0,1-9.939-18.1ZM47.8,9.1H30.1V28.417a2.216,2.216,0,0,1-.455,1.573S12.829,57.6,10.992,60.58s-1,7.093,5.007,7.212,40.216.108,45.9,0,6.4-4.768,5.01-7.212S48.253,29.99,48.253,29.99a2.217,2.217,0,0,1-.455-1.573Z" transform="translate(-2.202 -2.25)" fill="#fff" fill-rule="evenodd"/>
</svg>
